<svg xmlns="http://www.w3.org/2000/svg" width="40" height="40" viewBox="0 0 40 40">
    <path fill="#010002" fill-rule="evenodd" d="M32.46 0a7.49 7.49 0 0 1 7.49 7.49v24.97a7.49 7.49 0 0 1-7.49 7.49H7.49A7.49 7.49 0 0 1 0 32.46V7.49A7.49 7.49 0 0 1 7.49 0h24.97zm-5.4 8.64H12.89a4.25 4.25 0 0 0-4.25 4.25v14.17a4.25 4.25 0 0 0 4.25 4.25h14.17a4.25 4.25 0 0 0 4.25-4.25V12.89a4.25 4.25 0 0 0-4.25-4.25zm-4.168 9.447c.4.573.65 1.27.65 2.018a3.45 3.45 0 0 1-6.9 0c0-.747.25-1.445.65-2.018a3.448 3.448 0 0 1 2.8-1.445c1.15 0 2.175.573 2.8 1.445zm2.81-.657h3.466v9.217c0 1.206-1.06 2.268-2.264 2.268H13.096c-1.204 0-2.264-1.062-2.264-2.268V17.43H14.3c-.287.574-.458 1.464-.458 2.297A6.157 6.157 0 0 0 20 25.9c3.41 0 6.16-2.785 6.16-6.173 0-.804-.172-1.723-.459-2.297zm3.186-5.128l.363-.023v3h-3v-2.977h2.637z"/>
</svg>
