<svg xmlns="http://www.w3.org/2000/svg" width="40" height="40" viewBox="0 0 40 40">
    <path fill="#010002" fill-rule="nonzero" d="M32.47 0H7.492A7.492 7.492 0 0 0 0 7.493v24.976a7.492 7.492 0 0 0 7.493 7.493h24.976a7.492 7.492 0 0 0 7.493-7.493V7.493A7.492 7.492 0 0 0 32.47 0zm-.62 14.544c-1.341 7.545-8.827 13.94-11.08 15.398-2.253 1.458-4.306-.585-5.05-2.133-.852-1.759-3.407-11.32-4.076-12.111-.67-.792-2.677.791-2.677.791l-.975-1.276s4.08-4.868 7.181-5.48c3.29-.647 3.285 5.053 4.076 8.215.767 3.06 1.28 4.808 1.946 4.808.672 0 1.95-1.703 3.35-4.318 1.403-2.618-.06-4.93-2.8-3.287 1.098-6.572 11.444-8.153 10.105-.607z"/>
</svg>
