<svg xmlns="http://www.w3.org/2000/svg" width="18" height="18" viewBox="0 0 18 18">
    <path fill="#000" fill-rule="nonzero" d="M7.841 0h.348c.334 0 .654.12.886.352.958.958.51 3.293.032 5.224-.03.087-.045.16-.06.204.58 1.64 1.41 2.961 2.324 3.716.377.29.797.579 1.263.84a16.918 16.918 0 0 1 1.874-.102c1.8 0 2.887.32 3.306 1.002.146.232.216.508.173.798-.014.363-.142.7-.403.96-.249.276-.68.432-1.32.432-1.103 0-2.907-.334-4.359-1.075-2.497.276-4.355.615-5.85 1.093-.072.03-.158.054-.26.098C3.995 16.62 2.661 18 1.485 18c-.233 0-.466-.06-.64-.162l-.696-.446-.046-.074a1.316 1.316 0 0 1-.074-.783c.16-.769.99-1.99 2.732-3.08.276-.203.71-.435 1.29-.71.436-.755.902-1.64 1.396-2.613.74-1.495 1.201-2.973 1.564-4.25v-.018c-.537-1.756-.853-2.815-.316-4.746C6.825.566 7.305 0 7.841 0zm.218.9a1.88 1.88 0 0 0-.102.176c-.247.61-.232 1.668.102 2.974l.074-.056c.101-.465.145-.873.232-1.192l.042-.232c.145-.827.117-1.248-.13-1.596L8.06.9zm.12 6.564c-.334 1.074-.817 2.218-1.47 3.48-.29.552-.612 1.073-.728 1.509l.162-.057a27.414 27.414 0 0 1 4.852-1.35 4.995 4.995 0 0 1-.598-.464c-.871-.74-1.623-1.812-2.218-3.118zm6.05 3.99c-.101 0-.204-.001-.333.144 1.058.465 2.088.742 2.755.742.101 0 .191-.014.278-.028h.06c.073-.03.116-.048.13-.193-.028-.044-.057-.1-.13-.159-.145-.145-.728-.506-2.76-.506zM3.675 14.08a6.09 6.09 0 0 0-.696.45c-1.03.943-1.682 1.899-1.754 2.451.653-.217 1.506-1.173 2.45-2.901z"/>
</svg>
